<svg width="24" height="24" viewBox="0 0 22 24" fill="none" xmlns="http://www.w3.org/2000/svg">
    <circle cx="11" cy="12" r="11" fill="black"/>
    <path d="M16.968 11.3647C16.9125 11.1267 16.806 10.9036 16.656 10.7107C16.5039 10.5191 16.3113 10.3634 16.092 10.2548C15.9195 10.1694 15.732 10.1185 15.5401 10.1048C15.4423 9.05495 14.9769 8.07335 14.2261 7.33305C13.3712 6.47945 12.2124 6 11.0043 6C9.7961 6 8.63733 6.47945 7.7824 7.33305C7.03158 8.07335 6.56626 9.05495 6.46846 10.1048C6.27647 10.1185 6.08898 10.1694 5.91648 10.2548C5.69621 10.3618 5.50332 10.5178 5.3525 10.7107C5.20105 10.903 5.09445 11.1266 5.04047 11.3654C4.98649 11.6041 4.98651 11.8519 5.04052 12.0906L5.98248 15.9482C6.1446 16.5393 6.49688 17.0605 6.98488 17.4313C7.47287 17.8022 8.06943 18.002 8.68236 18H13.3082C13.9232 18.0006 14.5213 17.7989 15.0103 17.4259C15.4994 17.053 15.8521 16.5295 16.014 15.9362L16.95 12.0906C17.01 11.853 17.016 11.6046 16.968 11.3647ZM9.10834 15.2163C9.10834 15.3356 9.06093 15.45 8.97654 15.5344C8.89216 15.6188 8.7777 15.6662 8.65836 15.6662C8.53902 15.6662 8.42456 15.6188 8.34018 15.5344C8.25579 15.45 8.20838 15.3356 8.20838 15.2163V12.8525C8.20838 12.7332 8.25579 12.6187 8.34018 12.5343C8.42456 12.45 8.53902 12.4025 8.65836 12.4025C8.7777 12.4025 8.89216 12.45 8.97654 12.5343C9.06093 12.6187 9.10834 12.7332 9.10834 12.8525V15.2163ZM11.4542 15.2163C11.4542 15.2754 11.4426 15.3339 11.42 15.3885C11.3974 15.443 11.3642 15.4926 11.3224 15.5344C11.2807 15.5762 11.2311 15.6094 11.1765 15.632C11.1219 15.6546 11.0634 15.6662 11.0043 15.6662C10.9452 15.6662 10.8867 15.6546 10.8321 15.632C10.7775 15.6094 10.7279 15.5762 10.6861 15.5344C10.6443 15.4926 10.6111 15.443 10.5885 15.3885C10.5659 15.3339 10.5543 15.2754 10.5543 15.2163V12.8525C10.5543 12.7332 10.6017 12.6187 10.6861 12.5343C10.7705 12.45 10.8849 12.4025 11.0043 12.4025C11.1236 12.4025 11.2381 12.45 11.3224 12.5343C11.4068 12.6187 11.4542 12.7332 11.4542 12.8525V15.2163ZM13.8001 15.2163C13.8001 15.3356 13.7527 15.45 13.6683 15.5344C13.584 15.6188 13.4695 15.6662 13.3502 15.6662C13.2308 15.6662 13.1164 15.6188 13.032 15.5344C12.9476 15.45 12.9002 15.3356 12.9002 15.2163V12.8525C12.9002 12.7332 12.9476 12.6187 13.032 12.5343C13.1164 12.45 13.2308 12.4025 13.3502 12.4025C13.4695 12.4025 13.584 12.45 13.6683 12.5343C13.7527 12.6187 13.8001 12.7332 13.8001 12.8525V15.2163ZM7.37442 10.0928C7.47309 9.28743 7.84096 8.53904 8.41837 7.96899C9.10533 7.28537 10.0351 6.90159 11.0043 6.90159C11.9734 6.90159 12.9032 7.28537 13.5901 7.96899C14.1676 8.53904 14.5354 9.28743 14.6341 10.0928H7.37442Z" fill="white"/>
</svg>
