<svg width="325" height="100" viewBox="0 0 325 100" fill="none" xmlns="http://www.w3.org/2000/svg">
<path d="M1.03073 23.807L43.0307 0.537022C43.6337 0.202933 44.3663 0.202933 44.9693 0.537022L86.9693 23.807C87.6053 24.1594 88 24.8293 88 25.5565V72.9852C88 73.6941 87.6248 74.35 87.0137 74.7093L45.0137 99.404C44.388 99.7719 43.612 99.7719 42.9863 99.404L0.986301 74.7093C0.37523 74.35 0 73.6941 0 72.9852V25.5565C0 24.8293 0.394672 24.1594 1.03073 23.807Z" fill="#D32727"/>
<path d="M99.456 43.92V27.888L97.392 27.696V26.808H109.8L110.064 30.144L109.152 30.168L108.6 27.936L101.184 27.792V35.232L106.608 35.136L106.992 33.312H107.904V38.232H106.896L106.608 36.288L101.184 36.192V43.944L104.808 44.136V45H97.224V44.208L99.456 43.92ZM112.212 43.944L118.524 26.712H119.94L126.06 43.944L128.004 44.208V45H122.292V44.208L124.26 43.944L122.772 39.672H115.212L113.748 43.944L115.788 44.208V45H110.508V44.208L112.212 43.944ZM119.892 31.416L119.028 28.68L115.572 38.592H122.412L119.892 31.416ZM135.121 45.264C134.049 45.264 132.985 45.152 131.929 44.928C130.873 44.704 130.153 44.48 129.769 44.256V40.752H130.633L131.185 43.152C131.617 43.584 132.209 43.888 132.961 44.064C133.729 44.24 134.521 44.328 135.337 44.328C136.489 44.328 137.473 44.048 138.289 43.488C139.121 42.912 139.537 42.032 139.537 40.848C139.537 40.176 139.329 39.584 138.913 39.072C138.513 38.544 138.001 38.088 137.377 37.704C136.753 37.32 135.945 36.888 134.953 36.408C133.897 35.896 133.017 35.424 132.313 34.992C131.625 34.544 131.049 34.008 130.585 33.384C130.121 32.76 129.889 32.032 129.889 31.2C129.889 30.176 130.177 29.32 130.753 28.632C131.345 27.944 132.073 27.44 132.937 27.12C133.817 26.8 134.697 26.64 135.577 26.64C136.649 26.64 137.561 26.736 138.313 26.928C139.065 27.104 139.657 27.32 140.089 27.576V30.696H139.297L138.601 28.368C137.977 27.824 136.921 27.552 135.433 27.552C134.809 27.552 134.193 27.672 133.585 27.912C132.993 28.136 132.497 28.504 132.097 29.016C131.697 29.528 131.497 30.168 131.497 30.936C131.497 31.56 131.689 32.112 132.073 32.592C132.457 33.072 132.937 33.488 133.513 33.84C134.105 34.192 134.873 34.592 135.817 35.04C136.953 35.584 137.881 36.08 138.601 36.528C139.321 36.96 139.929 37.496 140.425 38.136C140.921 38.776 141.169 39.528 141.169 40.392C141.169 42.024 140.601 43.248 139.465 44.064C138.345 44.864 136.897 45.264 135.121 45.264ZM145.623 43.92V27.864L143.679 27.696V26.808H149.247V27.696L147.351 27.864V35.688H157.167V27.864L155.247 27.696V26.808H160.743V27.696L158.895 27.864V43.92L160.935 44.208V45H155.175V44.208L157.167 43.944V36.768H147.351V43.944L149.343 44.208V45H143.607V44.208L145.623 43.92ZM165.928 43.944V27.864L163.984 27.696V26.808H169.624V27.696L167.656 27.864V43.944L169.72 44.208V45H163.936V44.208L165.928 43.944ZM180.905 26.64C182.409 26.64 183.737 27.016 184.889 27.768C186.041 28.52 186.929 29.568 187.553 30.912C188.177 32.256 188.489 33.784 188.489 35.496C188.489 37.528 188.121 39.288 187.385 40.776C186.649 42.264 185.649 43.4 184.385 44.184C183.137 44.952 181.753 45.336 180.233 45.336C178.665 45.336 177.281 44.944 176.081 44.16C174.881 43.376 173.961 42.288 173.321 40.896C172.681 39.504 172.369 37.92 172.385 36.144C172.433 34.176 172.833 32.48 173.585 31.056C174.337 29.632 175.353 28.536 176.633 27.768C177.913 27.016 179.337 26.64 180.905 26.64ZM180.545 27.624C179.329 27.624 178.249 27.96 177.305 28.632C176.361 29.304 175.625 30.28 175.097 31.56C174.569 32.84 174.305 34.368 174.305 36.144C174.305 37.696 174.561 39.096 175.073 40.344C175.585 41.592 176.313 42.576 177.257 43.296C178.201 44 179.305 44.352 180.569 44.352C181.769 44.352 182.825 44 183.737 43.296C184.649 42.592 185.353 41.592 185.849 40.296C186.361 39 186.617 37.48 186.617 35.736C186.617 34.216 186.377 32.848 185.897 31.632C185.417 30.4 184.721 29.424 183.809 28.704C182.897 27.984 181.809 27.624 180.545 27.624ZM208.092 27.768L206.052 27.96V45H204.156L195.828 31.968L194.1 28.68L194.076 43.944L196.5 44.208V45H190.74V44.208L192.804 43.944V27.96L190.812 27.792V26.808H194.628L203.052 40.32L204.78 43.488V27.96L202.74 27.768V26.808H208.092V27.768ZM220.588 24.144V47.184H219.052V24.144H220.588ZM234.29 43.92V27.888L232.226 27.696V26.808H235.13C235.818 26.808 236.658 26.776 237.65 26.712C237.89 26.696 238.21 26.68 238.61 26.664C239.026 26.648 239.394 26.64 239.714 26.64C242.61 26.64 244.794 27.408 246.266 28.944C247.754 30.464 248.498 32.624 248.498 35.424C248.498 37.408 248.106 39.136 247.322 40.608C246.554 42.064 245.466 43.184 244.058 43.968C242.666 44.736 241.066 45.12 239.258 45.12C238.89 45.12 238.258 45.104 237.362 45.072C236.626 45.024 235.89 45 235.154 45H232.178V44.208L234.29 43.92ZM236.018 43.824C237.202 44.032 238.29 44.128 239.282 44.112C240.658 44.08 241.906 43.768 243.026 43.176C244.146 42.568 245.034 41.656 245.69 40.44C246.362 39.224 246.698 37.712 246.698 35.904C246.698 33.216 246.066 31.176 244.802 29.784C243.554 28.376 241.77 27.672 239.45 27.672C238.17 27.672 237.026 27.744 236.018 27.888V43.824ZM256.761 45.264C255.689 45.264 254.625 45.152 253.569 44.928C252.513 44.704 251.793 44.48 251.409 44.256V40.752H252.273L252.825 43.152C253.257 43.584 253.849 43.888 254.601 44.064C255.369 44.24 256.161 44.328 256.977 44.328C258.129 44.328 259.113 44.048 259.929 43.488C260.761 42.912 261.177 42.032 261.177 40.848C261.177 40.176 260.969 39.584 260.553 39.072C260.153 38.544 259.641 38.088 259.017 37.704C258.393 37.32 257.585 36.888 256.593 36.408C255.537 35.896 254.657 35.424 253.953 34.992C253.265 34.544 252.689 34.008 252.225 33.384C251.761 32.76 251.529 32.032 251.529 31.2C251.529 30.176 251.817 29.32 252.393 28.632C252.985 27.944 253.713 27.44 254.577 27.12C255.457 26.8 256.337 26.64 257.217 26.64C258.289 26.64 259.201 26.736 259.953 26.928C260.705 27.104 261.297 27.32 261.729 27.576V30.696H260.937L260.241 28.368C259.617 27.824 258.561 27.552 257.073 27.552C256.449 27.552 255.833 27.672 255.225 27.912C254.633 28.136 254.137 28.504 253.737 29.016C253.337 29.528 253.137 30.168 253.137 30.936C253.137 31.56 253.329 32.112 253.713 32.592C254.097 33.072 254.577 33.488 255.153 33.84C255.745 34.192 256.513 34.592 257.457 35.04C258.593 35.584 259.521 36.08 260.241 36.528C260.961 36.96 261.569 37.496 262.065 38.136C262.561 38.776 262.809 39.528 262.809 40.392C262.809 42.024 262.241 43.248 261.105 44.064C259.985 44.864 258.537 45.264 256.761 45.264ZM270.768 43.92V27.792L265.896 27.984L265.176 30.336L264.36 30.36L264.648 26.808H278.592L278.568 30.408L277.824 30.504L277.344 27.984L272.496 27.792V43.92L275.736 44.208V45H267.696V44.208L270.768 43.92ZM286.203 43.92V37.488L280.443 27.864L279.027 27.696V26.808H284.403V27.696L282.435 27.864L286.563 35.28L287.187 36.528L287.763 35.28L291.507 27.888L289.491 27.696V26.808H294.555V27.696L292.971 27.96L287.931 37.536V43.92L290.403 44.208V45H283.827V44.208L286.203 43.92ZM298.087 43.92V27.96L296.023 27.792V26.808H302.095V27.792L299.815 27.96L299.791 43.992L306.895 43.776L308.167 40.896L308.959 41.28L308.191 45H295.975V44.208L298.087 43.92ZM312.617 43.944V27.888L310.553 27.696V26.808H322.697L323.033 30.144H322.049L321.497 27.888L314.321 27.744V34.872L319.121 34.776L319.409 32.904H320.345V37.872H319.409L319.121 35.904L314.321 35.832V44.016L322.049 43.824L323.105 41.088L323.969 41.304L323.441 45H310.505V44.208L312.617 43.944Z" fill="black"/>
<path d="M16.184 64.38V40.332L13.088 40.044V38.712H31.7L32.096 43.716L30.728 43.752L29.9 40.404L18.776 40.188V51.348L26.912 51.204L27.488 48.468H28.856V55.848H27.344L26.912 52.932L18.776 52.788V64.416L24.212 64.704V66H12.836V64.812L16.184 64.38ZM41.3306 34.716V69.276H39.0266V34.716H41.3306ZM53.0947 64.38V40.332L49.9987 40.044V38.712H54.3547C55.3867 38.712 56.6467 38.664 58.1347 38.568C58.4947 38.544 58.9747 38.52 59.5747 38.496C60.1987 38.472 60.7507 38.46 61.2307 38.46C65.5747 38.46 68.8507 39.612 71.0587 41.916C73.2907 44.196 74.4067 47.436 74.4067 51.636C74.4067 54.612 73.8187 57.204 72.6427 59.412C71.4907 61.596 69.8587 63.276 67.7467 64.452C65.6587 65.604 63.2587 66.18 60.5467 66.18C59.9947 66.18 59.0467 66.156 57.7027 66.108C56.5987 66.036 55.4947 66 54.3907 66H49.9267V64.812L53.0947 64.38ZM55.6867 64.236C57.4627 64.548 59.0947 64.692 60.5827 64.668C62.6467 64.62 64.5187 64.152 66.1987 63.264C67.8787 62.352 69.2107 60.984 70.1947 59.16C71.2027 57.336 71.7067 55.068 71.7067 52.356C71.7067 48.324 70.7587 45.264 68.8627 43.176C66.9907 41.064 64.3147 40.008 60.8347 40.008C58.9147 40.008 57.1987 40.116 55.6867 40.332V64.236Z" fill="white"/>
<path d="M98.048 73.296L98.848 62.64L97.28 62.512V61.872H100.496L103.632 71.072L103.952 72.16L104.304 71.056L107.264 61.872H110.288V62.512L108.736 62.64L109.664 73.296L111.184 73.472V74H107.072V73.472L108.576 73.296L107.888 65.264L107.776 62.608L107.36 64.096L104 74.112H103.6L100.352 64.944C100.16 64.4213 99.968 63.856 99.776 63.248L99.552 62.608L99.424 65.68L98.992 73.28L100.656 73.472V74H96.608V73.472L98.048 73.296ZM115.806 65.104C116.744 65.104 117.486 65.3173 118.03 65.744C118.584 66.16 118.862 66.9013 118.862 67.968L118.846 73.44H119.87V73.872C119.507 74.0427 119.059 74.128 118.526 74.128C118.206 74.128 118.003 74.0587 117.918 73.92C117.832 73.7813 117.79 73.4933 117.79 73.056C117.139 73.8027 116.2 74.176 114.974 74.176C114.515 74.176 114.083 74.08 113.678 73.888C113.283 73.696 112.963 73.4187 112.718 73.056C112.472 72.6933 112.35 72.2613 112.35 71.76C112.35 71.0347 112.638 70.4533 113.214 70.016C113.8 69.5787 114.499 69.2693 115.31 69.088C116.131 68.896 116.936 68.8 117.726 68.8V68.112C117.726 67.2907 117.534 66.72 117.15 66.4C116.766 66.0693 116.19 65.904 115.422 65.904C115.038 65.904 114.595 65.9733 114.094 66.112C113.592 66.2507 113.198 66.416 112.91 66.608L112.686 66.048C113.038 65.76 113.534 65.5307 114.174 65.36C114.814 65.1893 115.358 65.104 115.806 65.104ZM117.726 69.44C116.659 69.44 115.683 69.6107 114.798 69.952C113.923 70.2827 113.486 70.8267 113.486 71.584C113.475 72.2027 113.656 72.6613 114.03 72.96C114.403 73.2587 114.91 73.408 115.549 73.408C116.35 73.408 117.075 73.136 117.726 72.592V69.44ZM122.567 73.328V66.432L121.415 66.016V65.632L123.271 65.152L123.559 65.296V66.368C123.964 66.048 124.514 65.7547 125.207 65.488C125.9 65.2107 126.508 65.072 127.031 65.072C127.65 65.072 128.14 65.1947 128.503 65.44C128.866 65.6853 129.127 66.08 129.287 66.624C129.447 67.168 129.527 67.8987 129.527 68.816V73.328L130.791 73.472V74H127.191V73.472L128.391 73.328V68.96C128.391 68.224 128.332 67.6427 128.215 67.216C128.108 66.7787 127.916 66.4587 127.639 66.256C127.372 66.0533 126.999 65.952 126.519 65.952C126.103 65.952 125.634 66.0427 125.111 66.224C124.588 66.3947 124.119 66.624 123.703 66.912V73.328L124.935 73.472V74H121.447V73.472L122.567 73.328ZM133.713 71.824C134.236 71.952 134.636 72.256 134.913 72.736C135.191 73.216 135.329 73.712 135.329 74.224C135.34 75.0453 135.105 75.7653 134.625 76.384C134.145 77.0027 133.58 77.4453 132.929 77.712L132.657 77.36V77.184C132.903 77.0987 133.148 76.928 133.393 76.672C133.639 76.4267 133.841 76.128 134.001 75.776C134.161 75.424 134.241 75.0613 134.241 74.688C134.241 74.2187 134.124 73.8187 133.889 73.488C133.665 73.1573 133.399 72.9707 133.089 72.928V72.64L133.713 71.824ZM140.688 62.464V61.872H144.592V62.464L143.04 62.576L145.792 71.328L146.256 72.784L146.688 71.392L148.56 64L148.144 62.576L146.848 62.464V61.872H150.848V62.464L149.36 62.576L151.728 71.424L152.096 72.832L152.464 71.232L154.752 62.576L153.328 62.464V61.872H156.976V62.464L155.728 62.576L152.368 74.16H151.44L148.992 65.568L146.656 74.16H145.664L141.76 62.576L140.688 62.464ZM162.07 64.992C162.934 64.992 163.649 65.2 164.214 65.616C164.79 66.0213 165.211 66.5653 165.478 67.248C165.755 67.9307 165.894 68.6773 165.894 69.488C165.883 70.3947 165.697 71.2053 165.334 71.92C164.982 72.6347 164.497 73.1947 163.878 73.6C163.27 73.9947 162.587 74.192 161.83 74.192C160.934 74.192 160.193 73.984 159.606 73.568C159.019 73.1413 158.587 72.5813 158.31 71.888C158.033 71.184 157.894 70.4053 157.894 69.552C157.894 68.6453 158.081 67.8453 158.454 67.152C158.838 66.4587 159.35 65.9253 159.99 65.552C160.63 65.1787 161.323 64.992 162.07 64.992ZM161.894 65.648C161.019 65.648 160.331 65.9787 159.83 66.64C159.339 67.3013 159.094 68.2187 159.094 69.392C159.094 70.5973 159.334 71.584 159.814 72.352C160.294 73.12 161.019 73.504 161.99 73.504C162.865 73.504 163.531 73.168 163.99 72.496C164.459 71.8133 164.694 70.8373 164.694 69.568C164.694 68.4053 164.465 67.4613 164.006 66.736C163.547 66.0107 162.843 65.648 161.894 65.648ZM168.88 73.328V66.432L167.728 66.016V65.616L169.6 65.152L169.872 65.296V66.368C170.277 66.048 170.794 65.76 171.424 65.504C172.064 65.248 172.64 65.1147 173.152 65.104C173.717 65.0933 174.17 65.1733 174.512 65.344C174.853 65.5147 175.114 65.7973 175.296 66.192C175.658 65.9147 176.181 65.664 176.864 65.44C177.546 65.216 178.144 65.104 178.656 65.104C179.264 65.104 179.744 65.2267 180.096 65.472C180.448 65.7173 180.698 66.112 180.848 66.656C181.008 67.1893 181.088 67.9147 181.088 68.832V73.328L182.4 73.472V74H178.848V73.472L179.968 73.328V69.024C179.968 68.2667 179.92 67.6747 179.824 67.248C179.728 66.8107 179.541 66.4853 179.264 66.272C178.986 66.0587 178.576 65.952 178.032 65.952C177.637 65.952 177.21 66.0267 176.752 66.176C176.293 66.3147 175.872 66.496 175.488 66.72C175.616 67.232 175.68 67.9093 175.68 68.752V73.328L176.912 73.472V74H173.36V73.472L174.56 73.328V68.88C174.56 68.144 174.512 67.5733 174.416 67.168C174.33 66.7627 174.16 66.464 173.904 66.272C173.648 66.0693 173.264 65.968 172.752 65.968C172.357 65.968 171.904 66.0533 171.391 66.224C170.89 66.3947 170.432 66.624 170.016 66.912V73.328L171.248 73.472V74H167.776V73.472L168.88 73.328ZM187.227 65.104C188.166 65.104 188.907 65.3173 189.451 65.744C190.006 66.16 190.283 66.9013 190.283 67.968L190.267 73.44H191.291V73.872C190.929 74.0427 190.481 74.128 189.947 74.128C189.627 74.128 189.425 74.0587 189.339 73.92C189.254 73.7813 189.211 73.4933 189.211 73.056C188.561 73.8027 187.622 74.176 186.395 74.176C185.937 74.176 185.505 74.08 185.099 73.888C184.705 73.696 184.385 73.4187 184.139 73.056C183.894 72.6933 183.771 72.2613 183.771 71.76C183.771 71.0347 184.059 70.4533 184.635 70.016C185.222 69.5787 185.921 69.2693 186.731 69.088C187.553 68.896 188.358 68.8 189.147 68.8V68.112C189.147 67.2907 188.955 66.72 188.571 66.4C188.187 66.0693 187.611 65.904 186.843 65.904C186.459 65.904 186.017 65.9733 185.515 66.112C185.014 66.2507 184.619 66.416 184.331 66.608L184.107 66.048C184.459 65.76 184.955 65.5307 185.595 65.36C186.235 65.1893 186.779 65.104 187.227 65.104ZM189.147 69.44C188.081 69.44 187.105 69.6107 186.219 69.952C185.345 70.2827 184.907 70.8267 184.907 71.584C184.897 72.2027 185.078 72.6613 185.451 72.96C185.825 73.2587 186.331 73.408 186.971 73.408C187.771 73.408 188.497 73.136 189.147 72.592V69.44ZM193.989 73.328V66.432L192.837 66.016V65.632L194.693 65.152L194.981 65.296V66.368C195.386 66.048 195.936 65.7547 196.629 65.488C197.322 65.2107 197.93 65.072 198.453 65.072C199.072 65.072 199.562 65.1947 199.925 65.44C200.288 65.6853 200.549 66.08 200.709 66.624C200.869 67.168 200.949 67.8987 200.949 68.816V73.328L202.213 73.472V74H198.613V73.472L199.813 73.328V68.96C199.813 68.224 199.754 67.6427 199.637 67.216C199.53 66.7787 199.338 66.4587 199.061 66.256C198.794 66.0533 198.421 65.952 197.941 65.952C197.525 65.952 197.056 66.0427 196.533 66.224C196.01 66.3947 195.541 66.624 195.125 66.912V73.328L196.357 73.472V74H192.869V73.472L193.989 73.328Z" fill="black"/>
</svg>
