<svg width="84" height="84" viewBox="0 0 84 84" fill="none" xmlns="http://www.w3.org/2000/svg">
<circle cx="42" cy="42" r="42" fill="#FFC700"/>
<path d="M40.9993 21.8823C44.2522 21.8823 46.7155 21.2234 47.9281 20.8148C47.1693 24.6431 44.1953 27.3298 40.9993 27.3298C37.8166 27.3298 34.8407 24.6399 34.0733 20.818C34.4306 20.9383 34.8984 21.0807 35.4645 21.2216C36.8043 21.5551 38.7045 21.8823 40.9993 21.8823Z" stroke="white" stroke-width="3"/>
<path d="M28.3819 60.8516C28.576 60.9524 28.7871 61.0031 29.0002 61H52.9998C53.2129 61.0031 53.424 60.9524 53.6181 60.8516M28.3819 60.8516L28.9823 59.7568L29.0002 59.7242L29.066 59.6041L29.1031 59.5364C29.1237 59.5477 29.1356 59.558 29.1416 59.5641C29.1483 59.5709 29.1474 59.5722 29.1428 59.5634C29.1362 59.5511 29.1283 59.5291 29.1247 59.5M28.3819 60.8516C28.1482 60.7235 27.9521 60.52 27.8175 60.266C27.6828 60.012 27.6154 59.7185 27.6235 59.4212L28.2344 36.3564C28.2394 36.1642 28.1813 35.9769 28.0717 35.8316M28.3819 60.8516L28.9814 59.6966L29.0002 59.6605L29.0155 59.6309L29.0729 59.5203C29.0568 59.5119 29.0317 59.5034 29.0002 59.5009C28.9933 59.5003 28.9861 59.5001 28.9786 59.5002L28.9894 59.5H29.0002H29.1247M29.1247 59.5H52.8753M29.1247 59.5C29.1233 59.4884 29.1226 59.4757 29.123 59.4621L29.123 59.4609L29.7338 36.3961L29.7338 36.3956C29.7472 35.8846 29.5953 35.3604 29.2691 34.9282L28.0717 35.8316M52.8753 59.5C52.8717 59.5291 52.8638 59.5511 52.8572 59.5634C52.8558 59.5662 52.8547 59.568 52.8541 59.5689C52.8548 59.568 52.8562 59.5663 52.8584 59.5641C52.8644 59.558 52.8763 59.5477 52.8969 59.5364L52.934 59.6041L52.9998 59.7242L53.0177 59.7568L53.6181 60.8516M52.8753 59.5H52.9998H53.0106L53.0214 59.5002C53.0139 59.5001 53.0067 59.5003 52.9998 59.5009C52.9683 59.5034 52.9432 59.5119 52.9271 59.5203L52.9845 59.6309L52.9998 59.6605L53.0186 59.6966L53.6181 60.8516M52.8753 59.5C52.8767 59.4884 52.8774 59.4757 52.877 59.4621L52.877 59.4609L52.2662 36.3961L52.2662 36.3956C52.2528 35.8846 52.4047 35.3604 52.7309 34.9282L52.7309 34.9282C53.0603 34.4916 53.5621 34.1628 54.1643 34.0847L54.3573 35.5722M53.6181 60.8516C53.8518 60.7235 54.0479 60.52 54.1825 60.266C54.3172 60.012 54.3846 59.7185 54.3765 59.4212L53.7656 36.3564C53.7606 36.1642 53.8187 35.9769 53.9283 35.8316C54.0379 35.6864 54.191 35.5938 54.3573 35.5722M54.3573 35.5722L54.1646 34.0847M54.3573 35.5722L58.4306 35.0437M54.1646 34.0847L60.8219 24.3311C60.9814 24.6492 61.0363 25.0225 60.9764 25.3831L59.5906 33.8086M54.1646 34.0847L58.1089 33.5729M54.1646 34.0847L58.2415 33.5867M58.4306 35.0437C58.7133 35.007 58.9784 34.8673 59.1872 34.6451C59.3959 34.4229 59.5372 34.1297 59.5906 33.8086M58.4306 35.0437L58.2667 33.7806L58.2415 33.5867M58.4306 35.0437L58.2666 33.7805L58.2414 33.5867L58.1653 33.5742C58.1246 33.5899 58.1014 33.6101 58.0938 33.6182C58.0887 33.6236 58.091 33.6227 58.096 33.6124C58.1002 33.6037 58.1052 33.5904 58.1089 33.5729M59.5906 33.8086L58.2412 33.5845L58.2376 33.5562L58.2375 33.5562L58.2411 33.5845L58.1695 33.5726C58.1884 33.5656 58.2108 33.5597 58.2369 33.5563L58.1438 33.5683L58.1108 33.5629M59.5906 33.8086L58.2415 33.5867M58.2415 33.5867L58.1108 33.5629M58.1089 33.5729L58.136 33.5694L58.1104 33.5652L58.1107 33.5638C58.1101 33.5669 58.1096 33.57 58.1089 33.5729ZM58.1108 33.5629L59.4963 25.1396L59.4966 25.1374C59.5046 25.0894 59.4974 25.0457 59.487 25.0175M58.1108 33.5629L49.2118 19.6196M59.487 25.0175L59.5473 25.0417C59.5118 25.0274 59.4922 25.0117 59.483 25.0027C59.4783 24.9981 59.4763 24.9953 59.4763 24.9952C59.4763 24.9951 59.4781 24.9976 59.4811 25.0036C59.4831 25.0077 59.4851 25.0123 59.487 25.0175ZM59.487 25.0175L50.0876 21.2369M50.0876 21.2369C50.2121 20.7787 50.3094 20.3103 50.3785 19.8349L50.3785 19.8349L50.3804 19.8211C50.3798 19.8257 50.3791 19.8303 50.3784 19.8349C50.3592 19.9641 50.3151 20.0966 50.241 20.2229L49.3157 19.6805L49.3068 19.6753L49.2555 19.6452L49.2252 19.6013M50.0876 21.2369C49.5716 23.1366 48.5892 24.8623 47.2196 26.195C45.5148 27.854 43.3145 28.7975 41.0033 28.7975C38.6922 28.7975 36.4919 27.854 34.7871 26.195C33.4169 24.8618 32.4342 23.1352 31.9184 21.2345M50.0876 21.2369L48.775 20.709M49.2252 19.6013L49.2214 19.5957L49.2252 19.6013ZM49.2252 19.6013L49.2555 19.6452L49.2285 19.6294L49.2555 19.6453L49.273 19.6707L49.2555 19.6453L49.3068 19.6753L49.3156 19.6805L50.241 20.223C50.1641 20.3541 50.0527 20.4819 49.903 20.5851L49.2758 19.6747L49.903 20.5851C49.7521 20.6891 49.5686 20.763 49.3649 20.787C49.1607 20.8111 48.9577 20.7822 48.775 20.709M48.775 20.709L49.1944 19.6629L49.1955 19.6602L49.2118 19.6196M48.775 20.709L31.9184 21.2345M49.2118 19.6196V19.6196ZM49.2115 19.6194V19.6194ZM49.2115 19.6194L49.2211 19.5954L49.2237 19.5889L49.2115 19.6194ZM31.9184 21.2345L33.2265 20.7084L33.2413 20.7024L33.2559 20.6962C33.2462 20.7003 33.2364 20.7044 33.2265 20.7083C33.0512 20.7777 32.8568 20.8066 32.6598 20.7864C32.4522 20.7652 32.2646 20.6919 32.1101 20.5871C31.9569 20.4832 31.8433 20.3533 31.7653 20.2202M31.9184 21.2345L31.7653 20.2202L31.7653 20.2202M31.9184 21.2345L22.513 25.0175M31.9184 21.2345L21.8959 23.658L21.8928 23.6501C21.5912 23.7714 21.3376 24.0131 21.1781 24.3311C21.0186 24.6492 20.9637 25.0225 21.0236 25.3831L22.4094 33.8086M31.9184 21.2345C31.7942 20.777 31.6971 20.3095 31.6282 19.8349L31.6265 19.8235L31.6251 19.8121C31.626 19.8197 31.6271 19.8273 31.6283 19.8349C31.6478 19.9633 31.6918 20.0948 31.7653 20.2202M31.9184 21.2345L31.7653 20.2202M22.513 25.0175C22.5149 25.0123 22.5169 25.0077 22.5189 25.0036L22.517 25.0027M22.513 25.0175L22.4525 25.0418C22.4881 25.0274 22.5078 25.0117 22.517 25.0027M22.513 25.0175C22.5026 25.0457 22.4954 25.0894 22.5034 25.1374L22.5037 25.1396L23.8892 33.5629L23.8562 33.5683L23.763 33.5562C23.7892 33.5597 23.8116 33.5656 23.8305 33.5726L23.7589 33.5845L23.7625 33.5562L23.7624 33.5562L23.7588 33.5845L22.4094 33.8086M22.517 25.0027L22.5189 25.0036C22.5219 24.9977 22.5237 24.9952 22.5237 24.9952C22.5237 24.9952 22.5217 24.9981 22.517 25.0027ZM22.4094 33.8086L23.7585 33.5867L23.7333 33.7806L23.5694 35.0437M22.4094 33.8086C22.4628 34.1297 22.6041 34.4229 22.8128 34.6451C23.0216 34.8673 23.2867 35.007 23.5694 35.0437M23.5694 35.0437L27.6427 35.5722M23.5694 35.0437L23.7334 33.7805M27.6427 35.5722C27.809 35.5938 27.9621 35.6864 28.0717 35.8316M27.6427 35.5722L27.8357 34.0847C28.4379 34.1628 28.9397 34.4916 29.2691 34.9282L28.0717 35.8316M27.6427 35.5722L27.8354 34.0847L23.8911 33.5729M23.8911 33.5729C23.8904 33.5699 23.8898 33.5668 23.8893 33.5635L23.8896 33.5652L23.864 33.5694L23.8911 33.5729ZM23.8911 33.5729C23.8948 33.5904 23.8998 33.6037 23.904 33.6124C23.907 33.6187 23.9091 33.6215 23.9091 33.6215C23.9091 33.6215 23.9082 33.6203 23.9062 33.6182L23.7334 33.7805M23.7334 33.7805L23.9062 33.6182C23.8986 33.6101 23.8754 33.5899 23.8347 33.5742L23.7586 33.5867L23.7334 33.7805Z" stroke="white" stroke-width="3"/>
<path d="M63.3536 69.3536C63.5488 69.1583 63.5488 68.8417 63.3536 68.6464L60.1716 65.4645C59.9763 65.2692 59.6597 65.2692 59.4645 65.4645C59.2692 65.6597 59.2692 65.9763 59.4645 66.1716L62.2929 69L59.4645 71.8284C59.2692 72.0237 59.2692 72.3403 59.4645 72.5355C59.6597 72.7308 59.9763 72.7308 60.1716 72.5355L63.3536 69.3536ZM41 69.5H63V68.5H41V69.5Z" fill="white"/>
<path d="M18.6464 68.6464C18.4512 68.8417 18.4512 69.1583 18.6464 69.3536L21.8284 72.5355C22.0237 72.7308 22.3403 72.7308 22.5355 72.5355C22.7308 72.3403 22.7308 72.0237 22.5355 71.8284L19.7071 69L22.5355 66.1716C22.7308 65.9763 22.7308 65.6597 22.5355 65.4645C22.3403 65.2692 22.0237 65.2692 21.8284 65.4645L18.6464 68.6464ZM41 68.5L19 68.5L19 69.5L41 69.5L41 68.5Z" fill="white"/>
</svg>
