<svg width="22" height="22" viewBox="0 0 22 22" fill="none" xmlns="http://www.w3.org/2000/svg">
    <path fill-rule="evenodd" clip-rule="evenodd" d="M11 22C4.92483 22 -4.06504e-05 17.0751 -4.06504e-05 11C-4.06504e-05 4.92487 4.92483 0 11 0C17.0751 0 22 4.92487 22 11C22 17.0751 17.0751 22 11 22ZM11.4756 8.25507C10.4904 8.66484 8.52144 9.51297 5.56865 10.7995C5.08917 10.9901 4.83799 11.1767 4.81512 11.3591C4.77648 11.6673 5.1625 11.7887 5.68815 11.954C5.75966 11.9765 5.83374 11.9998 5.9097 12.0245C6.42686 12.1926 7.12254 12.3892 7.48419 12.397C7.81225 12.4041 8.1784 12.2689 8.58263 11.9913C11.3415 10.129 12.7657 9.18768 12.8551 9.16738C12.9181 9.15307 13.0056 9.13507 13.0648 9.18771C13.124 9.24035 13.1182 9.34004 13.1119 9.36679C13.0737 9.52981 11.5584 10.9385 10.7743 11.6675C10.5298 11.8948 10.3564 12.056 10.321 12.0928C10.2415 12.1753 10.1606 12.2533 10.0828 12.3283C9.60238 12.7915 9.24209 13.1388 10.1028 13.706C10.5164 13.9786 10.8474 14.204 11.1776 14.4288C11.5382 14.6744 11.8979 14.9193 12.3632 15.2244C12.4818 15.3021 12.595 15.3828 12.7053 15.4615C13.125 15.7606 13.502 16.0294 13.9678 15.9866C14.2385 15.9617 14.518 15.7072 14.66 14.9481C14.9956 13.1543 15.6551 9.26756 15.8076 7.66594C15.8209 7.52562 15.8041 7.34604 15.7906 7.2672C15.7771 7.18837 15.7489 7.07605 15.6465 6.9929C15.5251 6.89443 15.3378 6.87366 15.254 6.87506C14.873 6.88185 14.2885 7.08509 11.4756 8.25507Z" fill="#0CBFD8"/>
</svg>
