<svg width="22" height="22" viewBox="0 0 22 22" fill="none" xmlns="http://www.w3.org/2000/svg">
    <path d="M7.35534 8.84765C7.414 11.7077 8.844 13.4237 11.352 13.4237H11.4987V11.7883C12.419 11.88 13.1157 12.5547 13.3943 13.4237H14.696C14.5625 12.9299 14.3258 12.47 14.0016 12.0743C13.6774 11.6787 13.2729 11.3562 12.815 11.1283C13.2254 10.8784 13.5798 10.5466 13.8561 10.1535C14.1324 9.76051 14.3247 9.3147 14.421 8.84399H13.2403C12.9837 9.75332 12.221 10.5783 11.4987 10.6553V8.84765H10.3143V12.0157C9.581 11.8323 8.657 10.945 8.61667 8.84765H7.35534Z" fill="#0CBFD8"/>
    <path fill-rule="evenodd" clip-rule="evenodd" d="M11 0C17.0751 0 22 4.92487 22 11C22 17.0751 17.0751 22 11 22C4.92487 22 0 17.0751 0 11C0 4.92487 4.92487 0 11 0ZM5.5 10.78C5.5 8.29033 5.5 7.04733 6.27 6.27C7.051 5.5 8.294 5.5 10.78 5.5H11.22C13.7097 5.5 14.9527 5.5 15.73 6.27C16.5 7.051 16.5 8.294 16.5 10.78V11.22C16.5 13.7097 16.5 14.9527 15.73 15.73C14.949 16.5 13.706 16.5 11.22 16.5H10.78C8.29033 16.5 7.04733 16.5 6.27 15.73C5.5 14.949 5.5 13.706 5.5 11.22V10.78Z" fill="#0CBFD8"/>
</svg>
